<?xml version="1.0" encoding="UTF-8"?><svg id="uuid-8bd85543-bbf6-4ee2-85af-c7a9082cb8bc" xmlns="http://www.w3.org/2000/svg" viewBox="0 0 460.2 262.52"><g id="uuid-1e900c67-c507-46cb-8a4f-54ccbaa8d4c2"><g id="uuid-a05e0c13-a102-4a16-ab20-60938ee0e4a1"><text transform="translate(0 208)" fill="#3a342f" font-family="CloneRounded-Bd, &apos;Clone Rounded Latin&apos;" font-size="130"><tspan x="0" y="0" letter-spacing=".07em">ORB</tspan><tspan x="268.71" y="0" letter-spacing=".04em"> </tspan><tspan x="303.29" y="0" letter-spacing=".07em">TZ</tspan></text><g><path d="M272.9,118.83c1.51,1.7,5.38,5.58,11.72,7.29,4.6,1.23,8.52,.79,10.69,.37-3.32,9.53-6.49,21.05-8.48,34.28-3.25,21.57-2.26,40.25-.37,54.19,.42,2.83,1.62,8.21,5.53,13.64,3.2,4.45,6.89,7.08,9.22,8.48,1.35,.48,3.24,.99,5.53,1.11,3.26,.16,5.88-.54,7.48-1.11,3.22-1.43,7.77-3.81,12.43-7.74,6.25-5.28,9.45-10.61,13.27-16.96,16.91-28.06,15.59-25.33,16.96-28.02,5.89-11.55,13.18-28.4,18.43-50.13,3.93-13.03,8.4-34.32,4.42-59.72-2.29-14.61-5.42-34.58-16.96-38.34-11.63-3.79-29.47,9.64-42.76,33.18-1.87-2.04-5-4.98-9.58-7.37-4.71-2.46-9.02-3.34-11.8-3.69,3.55-7.52,9.33-18.17,18.43-29.49C329.55,13.26,339.47,.92,354.66,.05c14.45-.83,25.29,9.22,27.28,11.06,11.44,10.59,12.99,24.02,13.27,27.28-5.38-18.93-19.55-31.84-34.65-32.44-8.41-.33-15.22,3.24-19.17,5.9,2.92-1.26,11.55-4.51,21.38-1.47,11.63,3.6,20.24,14.57,22.12,28.02,3.18,15.91,4.16,29.34,4.42,39.07,0,0,2.36,88.49-64.14,162.19-8.67,9.61-16.76,12.38-19.91,13.27-7.43,2.11-13.99,1.4-17.64,.74,.57,.9,2.14,3.09,5.11,4.42,3.34,1.5,6.37,.96,7.37,.74,3.78-.97,8.03-2.37,12.53-4.42,10.54-4.82,18.03-11.25,22.85-16.22-1.71,3.73-6.31,12.39-16.22,18.43-2.57,1.57-9.44,5.64-19.17,5.9-4.79,.13-8.72-.71-11.36-1.47-3.77-1.11-10.2-3.63-15.18-9.58-4.75-5.67-5.96-11.78-6.64-15.48-5.76-31.45-5.16-45.71-5.16-45.71,1.15-27.53,6.17-52.51,11.13-71.43Z" fill="#e2aa04"/><circle cx="295.68" cy="93.68" r="22.85" fill="#3a342f"/></g></g></g></svg>